<svg xmlns="http://www.w3.org/2000/svg" width="103.162" height="42.029" viewBox="0 0 103.162 42.029"><defs><style>.a{fill:#fff;}</style></defs><path class="a" d="M308.942,295.54a3.459,3.459,0,0,1,1.891.588l2.144,1.345,1.975-.588,2.9-3.488-6.178-6.178a13.652,13.652,0,0,0-9.751-3.783h-.086a12.181,12.181,0,0,0-7.017-2.061,15.794,15.794,0,0,0-3.32.378,18.777,18.777,0,0,0,2.133,3.932c-6.023,3.473-10.168,10.6-10.168,18.806a14.086,14.086,0,0,0,.168,2.48,7.221,7.221,0,0,1,4.589-2.017,16.8,16.8,0,0,1-2.564,7.944c6.515,0,18.157,3.068,22.318,5.884,0-1.933-4.161-6.767-8.154-9.373,0,0,11.726,5.086,13.491,14a12.247,12.247,0,0,0,.883-4.875c0-13.449-17.358-13.071-17.484-24.251a9.154,9.154,0,0,1,1.177-4.833,15.8,15.8,0,0,0-.42,3.488c0,8.616,9.036,8.994,14.71,14.416l1.219-6.6-2.354.756-1.723-.5c-1.891-.546-2.984-1.639-2.984-3.026A2.456,2.456,0,0,1,308.942,295.54Zm-7.15-6.882s1.429-.168,2.438-.168a8.247,8.247,0,0,1,5.338,1.807l-1.261,1.513A13.353,13.353,0,0,0,301.792,288.658Z" transform="translate(-283.465 -281.376)"/><g transform="translate(42.029 11.463)"><path class="a" d="M920.483,465.242l-1.831-2.615a5.979,5.979,0,0,0,4.109-5.579c0-3.314-2.716-5.593-6.675-5.593h-9l.3.46a5.19,5.19,0,0,1,.99,2.762v11.969a5.189,5.189,0,0,1-.99,2.762l-.3.46h5.156V454.908h3.614c1.772,0,2.969.99,2.969,2.44,0,1.7-1.427,2.785-5.455,3.775l4.419,6.813a5.474,5.474,0,0,0,4.742,2.624,3.628,3.628,0,0,0,2.555-.76S923.245,469.2,920.483,465.242Z" transform="translate(-907.087 -451.455)"/><path class="a" d="M1211.425,469.869l-.3-.368a4.184,4.184,0,0,1-.99-2.256l-1.4-12.567a4.8,4.8,0,0,1,.759-2.762l.253-.46h-5.432l-4.741,10.458-4.742-10.458H1189.4l.253.46a4.8,4.8,0,0,1,.759,2.762l-1.4,12.567a4.184,4.184,0,0,1-.99,2.256l-.3.368h4.995l1.119-11.934,5.74,12.625,5.74-12.625,1.119,11.934Z" transform="translate(-1168.804 -451.455)"/><path class="a" d="M1587.756,460.092a4.014,4.014,0,0,0,2.085-3.665c0-2.969-2.44-4.972-6.053-4.972h-9.023l.3.46a5.125,5.125,0,0,1,.99,2.762v11.969a5.125,5.125,0,0,1-.99,2.762l-.3.46h9.782c3.706,0,6.353-2.256,6.353-5.455A4.38,4.38,0,0,0,1587.756,460.092Zm-4.383-5.346c1.588,0,2.693.875,2.693,2.141s-1.1,2.141-2.693,2.141h-3.452v-4.281Zm.806,11.831h-4.258v-4.511h4.258c1.657,0,2.739.875,2.739,2.256S1585.836,466.577,1584.179,466.577Z" transform="translate(-1529.767 -451.455)"/></g></svg>