<svg xmlns="http://www.w3.org/2000/svg" xmlns:xlink="http://www.w3.org/1999/xlink" width="12" height="113" viewBox="0 0 12 113"><defs><style>.a{fill:#fa9d1e;}.aa,.b,.g,.h,.i,.n,.o,.p,.q,.r,.t,.v,.x,.z{fill:none;}.c{clip-path:url(#a);}.d{clip-path:url(#b);}.e{fill:#fff;}.f{clip-path:url(#c);}.g,.h,.i,.o,.p,.q,.r,.v,.x{stroke:#000;}.aa,.g,.h,.i,.n,.o,.p,.q,.r,.t,.v,.x,.z{stroke-miterlimit:10;}.g{stroke-width:3.402px;}.h{stroke-width:3.912px;}.i,.z{stroke-width:2.041px;}.j{fill:#006c68;}.k{fill:#ee7924;}.l{fill:#fcc62d;}.m{clip-path:url(#f);}.n{stroke:#ef7924;stroke-width:1.361px;}.o{stroke-width:1.191px;}.p{stroke-width:1.531px;}.q,.t{stroke-width:1.701px;}.r{stroke-width:2.722px;}.s{clip-path:url(#h);}.t{stroke:#1d1d1b;}.u{fill:#059898;}.v{stroke-width:5.613px;}.w{fill:#a4a4a5;}.x{stroke-width:6.804px;}.y{clip-path:url(#m);}.z{stroke:#ee7924;}.aa{stroke:#f5f5f5;stroke-width:1.021px;}.ab{clip-path:url(#p);}</style><clipPath id="a"><rect class="a" width="12" height="113" transform="translate(78 157)"/></clipPath><clipPath id="b"><rect class="a" width="23" height="113" transform="translate(151.02 179)"/></clipPath><clipPath id="c"><rect class="b" width="275.565" height="158.384"/></clipPath><clipPath id="f"><path class="b" d="M144.955,122.116v80.22l78.765-80.22Z" transform="translate(-144.955 -122.116)"/></clipPath><clipPath id="h"><path class="b" d="M406.792,229.55l55.815,55.491.586-75.688V172.984Z" transform="translate(-406.792 -172.984)"/></clipPath><clipPath id="m"><path class="b" d="M205.03,294.489H376.739L289.722,209.52Z" transform="translate(-205.03 -209.52)"/></clipPath><clipPath id="p"><path class="b" d="M306.278,121.812l-7.533,7.581L361.021,191.4l69.333-69.592Z" transform="translate(-298.745 -121.812)"/></clipPath></defs><g class="c" transform="translate(-78 -157)"><g class="d" transform="translate(-77.02 -22)"><g transform="translate(-42.236 178.245)"><rect class="e" width="275.564" height="158.13" transform="translate(0 0.257)"/><g class="f" transform="translate(0 0.003)"><line class="g" x1="214.917" y2="215.745" transform="translate(-86.901 68.481)"/><line class="g" x1="214.894" y2="215.72" transform="translate(-92.877 62.581)"/><line class="h" x1="214.91" y2="215.735" transform="translate(-99.055 56.441)"/><line class="i" x1="214.896" y2="215.718" transform="translate(-104.827 50.732)"/><line class="g" x1="214.902" y2="215.721" transform="translate(-110.802 44.803)"/></g><path class="j" d="M198.431,265.6l23.881-6.457,23.881-6.457-17.54-17.423-17.541-17.423-6.341,23.88Z" transform="translate(-153.67 -137.459)"/><line class="g" x1="35.909" y1="35.639" transform="translate(56.147 80.904)"/><line class="g" y1="46.794" x2="11.718" transform="translate(44.761 81.35)"/><line class="g" y1="11.988" x2="46.787" transform="translate(44.418 115.815)"/><path class="j" d="M165.842,281.379l-20.887,5.667v3.774L159.4,305.144h22.315l1.682-6.357,6.32-23.886Z" transform="translate(-144.955 -146.757)"/><g class="f" transform="translate(0 0.003)"><line class="g" x1="35.909" y1="35.639" transform="translate(-3.379 140.708)"/><line class="g" x1="46.787" y2="11.988" transform="translate(-2.026 128.141)"/><line class="g" x1="11.718" y2="46.794" transform="translate(32.701 127.8)"/></g><path d="M235.557,192.01l59.14,10.722-35.1-34.861Z" transform="translate(-159.72 -129.316)"/><line class="g" x1="35.909" y1="35.639" transform="translate(98.084 38.767)"/><line class="g" x1="59.646" y1="11.762" transform="translate(74.428 62.564)"/><path class="k" d="M285.048,217.126,225.908,206.4,261,241.261Z" transform="translate(-158.147 -135.594)"/><line class="g" x1="35.909" y1="35.639" transform="translate(67.897 69.097)"/><line class="g" x1="59.646" y1="11.762" transform="translate(67.692 69.332)"/><g class="f" transform="translate(0 0.003)"><path class="l" d="M141.107,361.749l-11.1-58.989,35.125,34.83Z" transform="translate(-142.519 -151.3)"/><line class="g" x1="35.909" y1="35.639" transform="translate(-14.211 151.592)"/><line class="g" x1="215.915" y2="216.749" transform="translate(-116.774 37.848)"/><line class="g" x1="215.915" y2="216.749" transform="translate(-80.937 73.415)"/></g><path d="M144.955,122.116v80.22l78.765-80.22Z" transform="translate(-144.955 -121.859)"/><g class="m" transform="translate(0 0.257)"><path class="n" d="M.442,130.205a133.754,133.754,0,0,1,33.482-8.963c1.71-.142,3.419-.427,5.129-.569h1.423A125.668,125.668,0,0,1,95.614,128.5c4.132,1.565,7.836,3.557,11.826,5.122,3.419,1.281,6.7,2.419,10.116,3.557,2.565.711,4.987,1.281,7.551,1.992a98.91,98.91,0,0,0,14.248,2.277c.428,0,1,.285,1.423.285H142.2a120.924,120.924,0,0,0,32.769-1.423h.855a136.277,136.277,0,0,0,27.5-8.109" transform="translate(-121.405 -121.811)"/><path class="n" d="M.612,121.835a140.5,140.5,0,0,1,28.208-8.252,5.853,5.853,0,0,1,1.567-.142c17.952-3.13,35.049-1.992,52.573,2.419.142,0,.428.285.57.285.428.142,1,.142,1.423.285,3.277,1,6.412,1.992,9.542,3.272,2.422,1,4.987,1.565,7.124,2.987a125.734,125.734,0,0,0,47.16,11.1,136.213,136.213,0,0,0,54.72-9.955" transform="translate(-121.432 -120.413)"/><path class="n" d="M.612,113.347c4.844-2.134,9.973-3.557,15.1-5.264.57-.142,1-.142,1.567-.285,3.135-1,6.269-1.423,9.4-2.277h.855a116.072,116.072,0,0,1,21.945-2.276,120.273,120.273,0,0,1,46.3,8.394c3.989,1.565,7.836,3.557,11.826,5.122,3.562,1.281,7.124,2.7,10.828,3.7,2.565.711,4.987,1.281,7.551,1.992a123.409,123.409,0,0,0,37.472,2.561,137.369,137.369,0,0,0,40.034-9.672" transform="translate(-121.432 -119.038)"/><path class="n" d="M.442,138.674a124.5,124.5,0,0,1,23.081-7.256A130.824,130.824,0,0,1,38.2,129.141h1.567a113.463,113.463,0,0,1,19.662-.285c1.71.142,3.277.285,4.987.427,8.833,1.281,17.382,2.846,25.788,5.833.712.142,1.423.427,2.137.569,5.984,2.277,11.683,5.122,17.667,7.4a115.387,115.387,0,0,0,28.5,6.687c.428,0,1,.285,1.423.285,1,0,1.995.142,2.992.142a121.787,121.787,0,0,0,20.374,0h1.423c1.71-.142,3.419-.427,5.129-.569l2.137-.427h.855a138.391,138.391,0,0,0,30.49-8.538" transform="translate(-121.405 -123.166)"/><path class="n" d="M.272,147.018c4.7-1.992,9.542-3.414,14.39-4.98.57-.142,1-.142,1.567-.285a125.458,125.458,0,0,1,81.354,4.41,126.4,126.4,0,0,0,40.178,12.094,130.364,130.364,0,0,0,65.54-9.248" transform="translate(-121.377 -124.539)"/><path class="n" d="M.272,155.519a136.31,136.31,0,0,1,17.243-5.833c4.7-1.138,9.119-1.992,13.963-2.846a116.729,116.729,0,0,1,19.8-1.281c1.71,0,3.419-.142,5.129,0,4.274.285,8.406.711,12.823,1.281a118.8,118.8,0,0,1,26.216,6.972c4.274,1.708,8.263,3.7,12.538,5.406,30.636,11.951,65.111,10.671,95.171-1.708" transform="translate(-121.377 -125.926)"/><path class="n" d="M.442,163.994a129.268,129.268,0,0,1,70.527-8.537c12.538,1.992,23.939,6.118,35.192,11.384,2.707.711,5.273,2.134,8.119,2.846.428.142.855.427,1.282.569a127.292,127.292,0,0,0,83.491-2.7c.285-.142.57,0,.855-.142,1.14-.427,2.422-1,3.562-1.423" transform="translate(-121.405 -127.287)"/><path class="n" d="M.442,172.354c1.14-.427,2.422-1,3.562-1.423.57-.142,1-.285,1.567-.427a129.375,129.375,0,0,1,28.353-7.115c1.71-.142,3.419-.427,5.129-.569H40.62c6.126-.711,12.11-.427,18.094-.285l5.129.427c.428,0,1,.285,1.423.285a115.386,115.386,0,0,1,28.5,6.687c5.984,2.277,11.683,5.122,17.81,7.4a120.654,120.654,0,0,0,29.208,6.545H142.2a113.059,113.059,0,0,0,21.941,0h1.423c.428,0,1-.285,1.423-.285a109.429,109.429,0,0,0,21.229-3.983,137.54,137.54,0,0,0,15.254-5.266" transform="translate(-121.405 -128.674)"/><path class="n" d="M.442,180.832A136.253,136.253,0,0,1,48.6,170.73a135.145,135.145,0,0,1,23.794,1.85c3.419.569,6.554,1.281,9.831,2.134,1.423.427,2.707.711,4.132,1.138,2.992,1,5.842,1.85,8.691,2.987,5.129,1.992,9.973,4.41,15.1,6.4a122.273,122.273,0,0,0,51.007,7.4l5.129-.427c.428,0,1-.285,1.423-.285a115.713,115.713,0,0,0,15.387-2.561,136.183,136.183,0,0,0,20.377-6.548" transform="translate(-121.405 -130.037)"/><path class="n" d="M.442,189.179a151.556,151.556,0,0,1,29.065-8.252,5.853,5.853,0,0,1,1.567-.142c25.218-3.983,50.294-.569,73.09,10.528a5.431,5.431,0,0,0,1.423.427,124.253,124.253,0,0,0,83.349,4.41c.57-.142,1-.142,1.567-.285a14.8,14.8,0,0,1,1.423-.569c3.562-.854,6.7-2.419,10.116-3.414a4.46,4.46,0,0,0,1.423-.711" transform="translate(-121.405 -131.416)"/><path class="n" d="M.442,197.663c3.277-1.423,6.7-2.561,10.116-3.7l7.266-2.134a130.516,130.516,0,0,1,43.17-3.841c2.846.285,5.7.569,8.549,1,1.423.142,2.846.569,4.274.854a102.129,102.129,0,0,1,17.243,4.41c5.7,1.992,10.971,4.553,16.527,6.829,30.773,12.377,65.679,11.1,95.885-1.426" transform="translate(-121.405 -132.786)"/></g><path class="l" d="M253.305,121.812,144.955,231.146v9L262.218,121.812Z" transform="translate(-144.955 -121.809)"/><path class="l" d="M242.424,121.812l-97.469,98.361v10.64l108.015-109Z" transform="translate(-144.955 -121.809)"/><g class="f" transform="translate(0 0.003)"><line class="o" y1="163.308" x2="161.826" transform="translate(-17.451 -18.798)"/><line class="g" y1="163.94" x2="162.459" transform="translate(-22.009 -23.856)"/><line class="p" y1="163.94" x2="162.459" transform="translate(-26.566 -28.278)"/><line class="g" y1="163.94" x2="162.459" transform="translate(-31.123 -32.702)"/><line class="q" y1="163.94" x2="162.459" transform="translate(-35.679 -37.125)"/><line class="r" y1="163.94" x2="162.459" transform="translate(-12.895 -15.009)"/><line class="g" y1="163.94" x2="162.459" transform="translate(-40.236 -41.549)"/></g><path class="l" d="M406.792,229.55l55.815,55.491.582-75.688V172.984Z" transform="translate(-187.625 -130.149)"/><g class="s" transform="translate(219.167 42.835)"><path class="t" d="M323.681,249.564c30.062-12.947,65.111-14.512,95.887-2.277,5.984,2.277,11.683,4.98,17.81,6.972a127.623,127.623,0,0,0,27.355,5.406c21.229,1.85,42.316-1.992,61.834-10.1" transform="translate(-393.248 -183.73)"/><path class="t" d="M323.681,258.247a136.939,136.939,0,0,1,29.631-8.678h.855c2.992-.711,5.7-.854,8.691-1.281h1.567c2.992-.569,5.842-.285,8.691-.569a120.288,120.288,0,0,1,12.4.427,122.446,122.446,0,0,1,22.515,3.991c1.567.569,3.277,1,4.844,1.423.428.142.855.427,1.282.569,5.7,1.85,10.971,4.269,16.527,6.545l4.7,1.708c1.852.569,3.562,1.138,5.414,1.708,1.567.427,3.135.854,4.844,1.281,4.274,1,8.406,1.85,12.68,2.419,1.71.142,3.277.427,4.987.569h1.423a129.363,129.363,0,0,0,61.837-10.111" transform="translate(-393.248 -185.16)"/><path class="t" d="M323.681,267.1c30.49-13.09,66.251-14.23,97.169-1.85a125.472,125.472,0,0,0,89.19,7.541c.428-.142,1-.142,1.423-.285,1.71-.569,3.419-1.138,5.129-1.565,3.419-1.138,6.7-2.419,9.973-3.841" transform="translate(-393.248 -186.608)"/><path class="t" d="M323.681,275.922a137.077,137.077,0,0,1,39.893-10.1h1.567a124.208,124.208,0,0,1,54.426,7.683c14.248,6.687,29.35,11.24,45.165,12.52a136.135,136.135,0,0,0,24.078-.285c.428,0,1-.285,1.423-.285a118.88,118.88,0,0,0,13.963-2.277,132.508,132.508,0,0,0,22.369-7.256" transform="translate(-393.248 -188.036)"/><path class="t" d="M323.681,284.609a133.192,133.192,0,0,1,61.834-10.1,125.2,125.2,0,0,1,39.893,10.386c1.995.854,3.989,1.708,5.984,2.419,1.282.427,2.707,1,3.989,1.423,3.135,1,6.269,1.992,9.542,2.7a119.465,119.465,0,0,0,15.53,2.987c2.992.285,5.842.569,8.691.711,1.71.142,3.419,0,5.129,0,3.135.142,6.269,0,9.4-.142,1.995-.142,3.85-.427,5.842-.569,2.707-.285,5.273-.711,8.119-1.281a116.982,116.982,0,0,0,28.923-8.538" transform="translate(-393.248 -189.467)"/><path class="t" d="M323.681,240.736c27.355-11.524,58.273-14.23,87.052-5.264.428.142,1,.142,1.423.285s.855.427,1.282.569a61.945,61.945,0,0,1,6.7,2.277c4.274,1.708,8.263,3.7,12.538,5.264,2.992,1,5.842,1.85,8.833,2.846a124.73,124.73,0,0,0,29.778,4.553,133.776,133.776,0,0,0,55.284-10.529" transform="translate(-393.248 -182.297)"/><path class="t" d="M323.681,231.91a133.239,133.239,0,0,1,60.41-10.244,129.8,129.8,0,0,1,46.589,12.663c30.636,11.809,65.824,10.528,95.887-2.419" transform="translate(-393.248 -180.873)"/><path class="t" d="M323.681,223.217a129.138,129.138,0,0,1,68.246-9.533,122.553,122.553,0,0,1,26.928,6.829c5.842,2.277,11.256,4.98,17.243,6.829.428.142.855.427,1.282.569,1.567.427,3.277.854,4.844,1.423l2.137.427c.142,0,.428.285.57.285,16.955,3.983,33.2,4.98,50.436,1.992a5.853,5.853,0,0,1,1.567-.142,108.648,108.648,0,0,0,13.82-3.272c.428-.142,1-.142,1.423-.285s1-.427,1.423-.569c4.559-1.138,8.691-2.987,12.966-4.553" transform="translate(-393.248 -179.435)"/><path class="t" d="M324.021,214.387a133.143,133.143,0,0,1,41.461-10.1c.712-.142,1.423-.142,2.137-.285a126.835,126.835,0,0,1,53,8.252c12.966,5.976,26.643,10.528,41.033,11.809.428,0,1,.285,1.423.285H464.5a115.324,115.324,0,0,0,30.49-1h.858a145.388,145.388,0,0,0,31.2-8.963" transform="translate(-393.303 -178.003)"/><path class="t" d="M324.192,205.562c19.662-8.109,41.033-12.094,62.4-9.961h1.423c14.96,1.423,28.923,5.976,42.458,11.951,2.279,1,4.417,1.708,6.7,2.561a126.038,126.038,0,0,0,23.081,5.122,134.921,134.921,0,0,0,28.353.285c.428,0,1-.285,1.423-.285.712,0,1.423-.142,2.137-.142a136.051,136.051,0,0,0,19.8-4.126c1.71-.427,3.277-1.138,4.987-1.565,3.562-1.138,6.839-2.561,10.116-3.841" transform="translate(-393.331 -176.577)"/><path class="t" d="M324.192,196.73a138.644,138.644,0,0,1,28.923-8.538,5.853,5.853,0,0,1,1.567-.142,124.175,124.175,0,0,1,58.7,3.983c.428.142.855.427,1.282.569,5.984,1.85,11.4,4.553,17.243,6.829a122.552,122.552,0,0,0,26.928,6.829c1.71.142,3.419.427,5.129.569h1.423a122.961,122.961,0,0,0,43.74-3.841l7.266-2.134c3.419-1.138,6.7-2.419,10.116-3.7.142-.142.428-.285.57-.427" transform="translate(-393.331 -175.143)"/><path class="t" d="M324.362,188.03c3.989-1.708,7.979-3.13,12.11-4.553,1.423-.427,2.992-.854,4.417-1.281,3.135-.854,6.269-1.423,9.4-2.277a5.855,5.855,0,0,1,1.567-.142,121.994,121.994,0,0,1,52.717,1l1.282.427,2.137.427c2.565.711,4.987,1.423,7.551,2.277,1.567.569,3.135,1.138,4.7,1.85,10.686,4.695,21.229,8.678,33.055,10.813a125.046,125.046,0,0,0,50.864-1.138c2.565-.569,4.844-1.138,7.266-1.85a148.425,148.425,0,0,0,15.815-5.549" transform="translate(-393.359 -173.699)"/><path class="t" d="M324.362,179.209a136.785,136.785,0,0,1,17.243-5.976c.57-.142,1-.142,1.567-.285a126.1,126.1,0,0,1,64.257-.285c.142,0,.428.285.57.285,8.119,1.992,15.245,5.264,22.8,8.394a121.209,121.209,0,0,0,34.052,7.967h1.423c20.944,1.85,41.746-2.134,60.98-10.1" transform="translate(-393.359 -172.277)"/><path class="t" d="M324.362,170.37a147.794,147.794,0,0,1,28.923-8.538c1.567-.285,2.846-.427,4.417-.712a124.809,124.809,0,0,1,44.168,1.423l1.282.427c10.258,1.992,19.092,5.833,28.208,9.817a127.057,127.057,0,0,0,54.568,7.825,135.272,135.272,0,0,0,24.79-4.407c1.423-.427,2.992-.854,4.417-1.281,4.132-1.423,8.119-2.846,12.11-4.553" transform="translate(-393.359 -170.835)"/></g><g class="f" transform="translate(0 0.003)"><line class="r" y1="171.039" x2="170.491" transform="translate(219.767 -72.03)"/><line class="g" y1="171.04" x2="170.491" transform="translate(191.436 -100.213)"/></g><rect class="k" width="46.723" height="7.639" transform="matrix(0.706, -0.708, 0.709, 0.705, 197.736, 77.095)"/><rect class="k" width="46.723" height="7.639" transform="matrix(0.706, -0.708, 0.709, 0.705, 208.569, 87.872)"/><rect class="l" width="49.252" height="3.819" transform="matrix(0.706, -0.708, 0.709, 0.705, 230.754, 43.997)"/><rect class="u" width="49.252" height="3.819" transform="matrix(0.706, -0.708, 0.709, 0.705, 225.338, 38.608)"/><rect class="u" width="49.252" height="3.819" transform="matrix(0.706, -0.708, 0.709, 0.705, 236.172, 49.386)"/><path class="l" d="M433.578,180.618l2.708,2.694,31.268-31.342v-5.407Z" transform="translate(-191.99 -125.843)"/><path class="u" d="M440.05,188.113l2.708,2.694,25.852-25.912v-5.408Z" transform="translate(-193.045 -127.949)"/><path class="k" d="M471.3,121.812l-9.106,9.124,5.416,5.387,4.609-4.62v-9.891Z" transform="translate(-196.653 -121.809)"/><g class="f" transform="translate(0 0.003)"><line class="p" y1="171.039" x2="170.491" transform="translate(217.129 -74.654)"/><line class="v" y1="171.04" x2="170.491" transform="translate(207.275 -84.456)"/><line class="v" y1="171.043" x2="170.489" transform="translate(196.448 -95.231)"/></g><rect class="u" width="18.684" height="6.541" transform="matrix(0.705, -0.709, 0.71, 0.704, 114.565, 21.762)"/><g class="f" transform="translate(0 0.003)"><rect class="w" width="18.684" height="6.541" transform="matrix(0.705, -0.709, 0.71, 0.704, 264.979, 171.169)"/></g><rect class="u" width="18.684" height="6.541" transform="matrix(0.705, -0.709, 0.71, 0.704, 223.262, 129.732)"/><rect class="j" width="18.684" height="6.541" transform="matrix(0.705, -0.709, 0.71, 0.704, 163.942, 70.809)"/><rect class="l" width="18.684" height="9.455" transform="matrix(0.705, -0.709, 0.71, 0.704, 125.196, 32.323)"/><path class="u" d="M445.586,307.9l.468.465h12.409l7.014-7.047-6.711-6.66Z" transform="translate(-193.947 -149.977)"/><rect class="u" width="18.684" height="9.454" transform="matrix(0.705, -0.709, 0.71, 0.704, 201.689, 108.306)"/><rect class="w" width="18.684" height="3.27" transform="matrix(0.705, -0.709, 0.71, 0.704, 133.849, 40.917)"/><rect class="k" width="18.684" height="3.27" transform="matrix(0.705, -0.709, 0.71, 0.704, 237.781, 144.155)"/><rect class="k" width="18.684" height="3.27" transform="matrix(0.705, -0.709, 0.71, 0.704, 171.006, 78.601)"/><rect class="l" width="18.684" height="1.636" transform="matrix(0.705, -0.709, 0.71, 0.704, 144.999, 51.992)"/><rect class="l" width="18.684" height="1.636" transform="matrix(0.705, -0.709, 0.71, 0.704, 234.176, 140.573)"/><rect class="l" width="18.684" height="1.636" transform="matrix(0.705, -0.709, 0.71, 0.704, 182.436, 89.178)"/><rect class="u" width="18.684" height="3.27" transform="matrix(0.705, -0.709, 0.71, 0.704, 147.578, 54.521)"/><rect class="k" width="18.684" height="0.791" transform="matrix(0.705, -0.709, 0.71, 0.704, 153.104, 60.044)"/><path class="k" d="M463.616,309.876h1.116l5.357-5.381-.561-.557Z" transform="translate(-196.885 -151.489)"/><rect class="w" width="18.684" height="0.791" transform="matrix(0.705, -0.709, 0.71, 0.704, 244.473, 150.803)"/><rect class="k" width="18.684" height="0.791" transform="matrix(0.705, -0.709, 0.71, 0.704, 192.508, 99.184)"/><rect class="k" width="18.684" height="0.791" transform="matrix(0.705, -0.709, 0.71, 0.704, 215.585, 122.107)"/><rect class="u" width="18.684" height="0.791" transform="matrix(0.705, -0.709, 0.71, 0.704, 187.336, 94.048)"/><rect class="w" width="18.684" height="0.791" transform="matrix(0.705, -0.709, 0.71, 0.704, 169.689, 77.293)"/><rect class="w" width="18.684" height="6.541" transform="matrix(0.706, -0.708, 0.709, 0.705, 115.374, 51.509)"/><rect class="u" width="18.684" height="6.541" transform="matrix(0.706, -0.708, 0.709, 0.705, 157.092, 92.948)"/><rect class="j" width="18.684" height="6.541" transform="matrix(0.706, -0.708, 0.709, 0.705, 216.411, 151.871)"/><rect class="u" width="18.684" height="9.454" transform="matrix(0.706, -0.708, 0.709, 0.705, 126.646, 62.706)"/><rect class="u" width="18.684" height="9.455" transform="matrix(0.706, -0.708, 0.709, 0.705, 176.596, 112.322)"/><rect class="k" width="18.684" height="3.27" transform="matrix(0.706, -0.708, 0.709, 0.705, 144.892, 80.831)"/><rect class="k" width="18.684" height="3.27" transform="matrix(0.706, -0.708, 0.709, 0.705, 210.891, 147.165)"/><rect class="l" width="18.684" height="1.636" transform="matrix(0.706, -0.708, 0.709, 0.705, 149.657, 85.565)"/><rect class="k" width="18.684" height="3.27" transform="matrix(0.706, -0.708, 0.709, 0.705, 101.347, 37.576)"/><rect class="l" width="18.684" height="1.636" transform="matrix(0.706, -0.708, 0.709, 0.705, 106.112, 42.311)"/><rect class="l" width="18.684" height="1.636" transform="matrix(0.706, -0.708, 0.709, 0.705, 201.398, 136.96)"/><path class="u" d="M440.207,310.8h2.377l-1.194-1.187Z" transform="translate(-193.07 -152.414)"/><path class="k" d="M431.211,310.073h1.117l4.353-4.369-.561-.557Z" transform="translate(-191.604 -151.686)"/><rect class="k" width="18.684" height="0.791" transform="matrix(0.706, -0.708, 0.709, 0.705, 124.97, 61.043)"/><rect class="w" width="18.684" height="0.791" transform="matrix(0.706, -0.708, 0.709, 0.705, 139.958, 75.932)"/><rect class="w" width="18.684" height="0.791" transform="matrix(0.706, -0.708, 0.709, 0.705, 100.066, 36.306)"/><rect class="k" width="18.684" height="0.791" transform="matrix(0.706, -0.708, 0.709, 0.705, 191.924, 127.551)"/><rect class="k" width="18.684" height="0.791" transform="matrix(0.706, -0.708, 0.709, 0.705, 168.846, 104.627)"/><rect class="u" width="18.684" height="0.791" transform="matrix(0.706, -0.708, 0.709, 0.705, 197.095, 132.687)"/><rect class="w" width="18.684" height="0.791" transform="matrix(0.706, -0.708, 0.709, 0.705, 213.966, 150.221)"/><g class="f" transform="translate(0 0.003)"><line class="x" x2="170.599" y2="169.313" transform="translate(113.552 22.448)"/><line class="g" x2="170.599" y2="169.313" transform="translate(99.519 36.536)"/><line class="g" x2="170.599" y2="169.313" transform="translate(127.587 8.359)"/></g><path d="M205.03,294.489H376.739L289.722,209.52Z" transform="translate(-154.745 -136.103)"/><path d="M205.03,296.958h3.531l-2.526-1Zm81.921-41.89-30-5.345,1.1,30.4-30-5.346.8,22.181h11.494l-.3-8.392,30,5.346-1.1-30.4,30,5.345-1.1-30.4,23.216,4.137-14.594-14.251-20.616-3.674Z" transform="translate(-154.745 -138.571)"/><g class="y" transform="translate(50.285 73.417)"><path class="z" d="M239.505,294.43l-33.286-8.978-11.312-13.08,4.107-3.1,28.5,11.375-1.1-30.4,30,5.346-1.1-30.4,30,5.346-1.1-30.4,30,5.346-1.1-30.4,30,5.346-1.1-30.4,30,5.346-1.1-30.4,30,5.345-1.1-30.4,30,5.345-5.626-27.867,3.791-3.284,8.811,10.114,5.017,34.821-30-5.344,1.1,30.4-30-5.345,1.1,30.4-30-5.346,1.1,30.4-30-5.351,1.1,30.4-30-5.345,1.1,30.4-30-5.345,1.1,30.4-30-5.346Z" transform="translate(-203.38 -187.452)"/><path class="aa" d="M444.658,89.531l5.467,37.941-30-5.345,1.1,30.4-30-5.345,1.1,30.4-30-5.346,4.071,25.351-32.966-.295,1.1,30.4-30-5.346,1.1,30.4-30-5.346,1.1,30.4-30-5.346,1.1,30.4-33.286-8.979" transform="translate(-206.585 -189.966)"/></g><path d="M327.9,289.4l-30-5.346.67,18.5H310.07l-.167-4.712,26.44,4.712h3.534L338.8,272.783l27.637,4.925-14.594-14.251L326.8,259Z" transform="translate(-169.881 -144.166)"/><g class="y" transform="translate(50.285 73.417)"><path class="z" d="M270.347,328.762l-33.286-8.979L225.749,306.7l4.107-3.1,28.5,11.375-1.1-30.4,30,5.346-1.1-30.4,30,5.346-1.1-30.4,30,5.345-1.1-30.4,30,5.346-1.1-30.4,30,5.346-1.1-30.4,30,5.345-1.1-30.4,30,5.345L455,111.715l3.791-3.284,8.811,10.114,5.017,34.821-30-5.345,1.1,30.4-30-5.345,1.1,30.4-29.994-5.345,1.1,30.4-30-5.346,1.1,30.4-30-5.346,1.1,30.4-30-5.349,1.1,30.4-30-5.346Z" transform="translate(-208.406 -193.046)"/><path class="aa" d="M475.5,123.863,480.97,161.8l-30-5.345,1.1,30.4-30-5.345,1.1,30.4-30-5.346,4.071,25.351-32.966-.295,1.1,30.4-30-5.345,1.1,30.4-30-5.346,1.1,30.4-30-5.346,1.1,30.4-33.286-8.979" transform="translate(-211.611 -195.561)"/></g><path d="M363.807,308.147H375.3l-.035-1.031,5.786,1.031h21.476l-9.8-9.569-29.457-5.25Z" transform="translate(-180.532 -149.76)"/><g class="y" transform="translate(50.285 73.417)"><path class="z" d="M301.189,363.093,267.9,354.114l-11.312-13.08,4.107-3.1,28.5,11.375-1.1-30.4,30,5.346-1.1-30.4,30,5.346-1.1-30.4,30,5.345-1.1-30.4,30,5.346-1.1-30.4,30,5.346-1.1-30.4,30,5.345-1.1-30.4,30,5.345-5.627-27.867,3.792-3.286,8.811,10.114,5.017,34.821-30-5.345,1.1,30.405-30-5.342,1.1,30.4-30-5.346,1.1,30.4-30-5.346,1.1,30.4-29.994-5.349,1.1,30.4-30-5.346,1.1,30.4-30-5.346Z" transform="translate(-213.433 -198.641)"/><path class="aa" d="M506.342,158.2l5.467,37.941-30-5.345,1.1,30.4-30-5.345,1.1,30.4-30-5.346,4.071,25.35-32.966-.295,1.1,30.4-30-5.346,1.1,30.4-30-5.346,1.1,30.4-30-5.346,1.1,30.4-33.286-8.981" transform="translate(-216.637 -201.157)"/></g><path d="M306.278,121.812l-7.533,7.581L361.021,191.4l69.333-69.592Z" transform="translate(-170.017 -121.809)"/><path d="M364.875,121.812l-3.4,26.876,30.35-2.648-3.577,28.292,13.258-13.309,3.5-27.649-30.35,2.648,1.8-14.213Z" transform="translate(-180.24 -121.809)"/><g class="ab" transform="translate(128.728 0.003)"><path class="z" d="M329.778,112.143,337.06,78.49l12.5-11.949,3.314,3.938-9.923,29L373.3,96.831l-3.817,30.187,30.35-2.648-3.817,30.187,30.35-2.648-3.817,30.187,30.35-2.648-3.817,30.187,30.35-2.648-3.817,30.187,30.35-2.648-3.816,30.188,30.35-2.648-3.817,30.193,27.584-7.031,3.477,3.613-9.666,9.3-34.57,6.78,3.816-30.188-30.35,2.648,3.816-30.188-30.35,2.648,3.817-30.187-30.35,2.648,3.817-30.187-30.349,2.648,3.817-30.187-30.35,2.648,3.817-30.187-30.35,2.648L360.13,109.5Z" transform="translate(-303.802 -112.805)"/><path class="aa" d="M546.415,306.348l-37.667,7.387,3.816-30.188-30.35,2.648,3.816-30.188-30.35,2.648,3.817-30.187-25.146,5.357-1.387-32.9-30.35,2.648,3.817-30.187-30.35,2.648,3.817-30.187-30.35,2.648,3.817-30.187-30.349,2.648L330.3,87.31" transform="translate(-302.7 -116.189)"/></g><path d="M306.521,121.812l-5.6,5.634-.69,3.187,16.071,16,10.439-.911-1.27,10.044,18.4,18.319,9.407-.821-1.144,9.049,9.129,9.09,1.486-1.492,3.706-29.311-30.35,2.648,3.817-30.187-30.349,2.648,4.756-13.9Z" transform="translate(-170.26 -121.809)"/><g class="ab" transform="translate(128.728 0.003)"><path class="z" d="M295.647,144.669l7.282-33.653,12.5-11.949,3.314,3.938-9.923,29,30.349-2.648-3.817,30.187,30.35-2.648-3.817,30.187,30.35-2.648-3.816,30.187,30.35-2.648-3.817,30.187,30.35-2.648L441.491,269.7l30.35-2.648-3.816,30.188,30.35-2.648-3.816,30.189,27.584-7.031,3.477,3.613-9.667,9.3-34.57,6.78,3.816-30.188-30.35,2.648,3.816-30.188-30.35,2.648,3.817-30.187-30.35,2.648,3.813-30.188-30.35,2.648,3.817-30.187-30.35,2.648,3.817-30.187-30.35,2.648,3.817-30.187Z" transform="translate(-298.24 -118.105)"/><path class="aa" d="M512.284,338.874l-37.667,7.387,3.816-30.188-30.35,2.648,3.816-30.188-30.35,2.648,3.817-30.187-25.146,5.357-1.387-32.9-30.35,2.648,3.816-30.187-30.349,2.648,3.817-30.187-30.35,2.648,3.817-30.187-30.349,2.648,7.282-33.653" transform="translate(-297.138 -121.49)"/><path d="M398.041,47.092l7.282-33.653,12.5-11.949,3.314,3.934-9.923,29,30.349-2.648L437.75,61.966l30.35-2.648L464.283,89.5l30.35-2.648-3.816,30.187,30.35-2.648-3.817,30.187,30.35-2.648-3.817,30.187,30.35-2.648-3.816,30.188,30.35-2.648L596.952,227.2l27.584-7.031,3.477,3.613-9.665,9.3-34.57,6.78,3.816-30.188-30.35,2.648,3.816-30.188-30.35,2.648,3.817-30.187-30.35,2.648,3.817-30.187-30.349,2.648,3.817-30.187-30.35,2.648,3.814-30.189-30.351,2.648,3.817-30.187Z" transform="translate(-314.927 -102.204)"/><path class="z" d="M398.041,47.092l7.282-33.653,12.5-11.949,3.314,3.934-9.923,29,30.349-2.648L437.75,61.966l30.35-2.648L464.283,89.5l30.35-2.648-3.816,30.187,30.35-2.648-3.817,30.187,30.35-2.648-3.817,30.187,30.35-2.648-3.816,30.188,30.35-2.648L596.952,227.2l27.584-7.031,3.477,3.613-9.665,9.3-34.57,6.78,3.816-30.188-30.35,2.648,3.816-30.188-30.35,2.648,3.817-30.187-30.35,2.648,3.817-30.187-30.349,2.648,3.817-30.187-30.35,2.648,3.814-30.189-30.351,2.648,3.817-30.187Z" transform="translate(-314.927 -102.204)"/><path class="aa" d="M614.677,241.3l-37.667,7.387,3.816-30.189-30.35,2.648,3.816-30.187-30.35,2.648,3.817-30.187-25.146,5.357-1.387-32.9-30.35,2.648,3.816-30.187-30.349,2.648L448.16,80.8l-30.35,2.648,3.817-30.187-30.349,2.648,7.282-33.653" transform="translate(-313.824 -105.589)"/></g><path d="M430.832,121.812l-2.988,23.635L441.1,132.138l1.306-10.327Z" transform="translate(-191.055 -121.809)"/><g class="ab" transform="translate(128.728 0.003)"><path class="z" d="M363.91,79.622l7.282-33.653L383.7,34.02l3.314,3.934-9.924,29,30.349-2.65-3.817,30.187,30.35-2.648-3.817,30.187,30.35-2.648-3.817,30.187,30.35-2.648-3.817,30.187,30.349-2.648-3.817,30.187L540.1,202l-3.816,30.188,30.35-2.649-3.816,30.189,27.584-7.031,3.477,3.613-9.662,9.305-34.57,6.78,3.816-30.188-30.355,2.649,3.816-30.188-30.35,2.649,3.817-30.187-30.351,2.648,3.817-30.187-30.346,2.648,3.817-30.187-30.35,2.648,3.816-30.187-30.349,2.648,3.817-30.187Z" transform="translate(-309.364 -107.505)"/><path class="aa" d="M580.546,273.823l-37.667,7.387,3.816-30.188-30.35,2.648,3.816-30.188-30.35,2.649,3.817-30.187L468.482,201.3l-1.387-32.9-30.35,2.648,3.817-30.187-30.349,2.648,3.817-30.187-30.35,2.648L387.5,85.79l-30.349,2.648,7.282-33.653" transform="translate(-308.262 -110.889)"/></g></g></g></g></svg>